<?xml version="1.0" encoding="UTF-8" standalone="no"?><!DOCTYPE svg PUBLIC "-//W3C//DTD SVG 1.1//EN" "http://www.w3.org/Graphics/SVG/1.1/DTD/svg11.dtd"><svg width="100%" height="100%" viewBox="0 0 293 56" version="1.1" xmlns="http://www.w3.org/2000/svg" xmlns:xlink="http://www.w3.org/1999/xlink" xml:space="preserve" xmlns:serif="http://www.serif.com/" style="fill-rule:evenodd;clip-rule:evenodd;stroke-linejoin:round;stroke-miterlimit:1.41421;"><g id="Logo-Artwork" serif:id="Logo Artwork"><path d="M20.956,27.488l-4.008,0l0,-6.848c1.762,-0.629 3.05,-2.252 3.186,-4.192l0.822,0c3.305,0 5.222,1.984 5.222,5.421c0,3.57 -1.917,5.619 -5.222,5.619m-5.055,8.649c1.764,0.274 3.119,1.798 3.119,3.637c0,2.03 -1.652,3.683 -3.683,3.683c-2.032,0 -3.685,-1.653 -3.685,-3.683c0,-1.839 1.356,-3.363 3.119,-3.637l0,-16.392c-1.763,-0.274 -3.119,-1.798 -3.119,-3.636c0,-2.032 1.653,-3.684 3.685,-3.684c2.031,0 3.683,1.652 3.683,3.684c0,1.838 -1.355,3.362 -3.119,3.636l0,16.392Zm5.848,-31.323l-21.749,0l0,46.34l15.337,0l0,-6.566c2.654,0 4.814,-2.16 4.814,-4.814c0,-0.222 -0.02,-0.438 -0.049,-0.651l1.647,0c12.031,0 18.972,-6.479 18.972,-17.717c0,-10.577 -6.941,-16.592 -18.972,-16.592" style="fill:#000;fill-rule:nonzero;"/><path d="M58.589,8.447c-0.191,0.031 -0.387,0.051 -0.587,0.051c-2.032,0 -3.684,-1.653 -3.684,-3.683c0,-2.032 1.652,-3.685 3.684,-3.685c2.031,0 3.684,1.653 3.684,3.685c0,1.432 -0.824,2.674 -2.022,3.282l12.825,39.42c0.183,-0.028 0.369,-0.047 0.559,-0.047c2.031,0 3.684,1.653 3.684,3.685c0,2.031 -1.653,3.683 -3.684,3.683c-2.031,0 -3.684,-1.652 -3.684,-3.683c0,-1.444 0.836,-2.692 2.047,-3.296l-12.822,-39.412Zm18.623,-3.633l-8.322,26.585l-7.53,-23.141c0.897,-0.875 1.457,-2.095 1.457,-3.443c0,-2.656 -2.161,-4.815 -4.815,-4.815c-2.655,0 -4.815,2.159 -4.815,4.814l-11.474,0l17.585,46.341l8.936,0c0,2.654 2.159,4.814 4.814,4.814c2.654,0 4.814,-2.16 4.814,-4.814c0,-1.323 -0.536,-2.522 -1.402,-3.394l16.419,-42.947l-15.667,0Z" style="fill:#000;fill-rule:nonzero;"/><path d="M116.942,39.256l-4.14,0l0,-18.351c1.762,-0.628 3.049,-2.251 3.186,-4.191l0.226,0c5.95,0 9.85,4.495 9.85,11.37c0,6.809 -3.569,11.172 -9.122,11.172m-5.187,8.263c1.764,0.273 3.12,1.797 3.12,3.636c0,2.031 -1.653,3.684 -3.684,3.684c-2.032,0 -3.685,-1.653 -3.685,-3.684c0,-1.839 1.356,-3.363 3.12,-3.636l0,-27.509c-1.764,-0.274 -3.12,-1.797 -3.12,-3.636c0,-2.031 1.653,-3.684 3.685,-3.684c2.031,0 3.684,1.653 3.684,3.684c0,1.839 -1.356,3.362 -3.12,3.636l0,27.509Zm29.976,-19.567c0,-14.081 -9.916,-23.137 -25.185,-23.137l-20.692,0l0,46.34l10.522,0c0,2.655 2.16,4.814 4.815,4.814c2.654,0 4.814,-2.159 4.814,-4.814l0,-0.001c15.635,-0.022 25.726,-9.139 25.726,-23.202" style="fill:#000;fill-rule:nonzero;"/><path d="M187.345,14.755c0,3.431 2.501,5.968 5.36,5.968c2.86,0 5.147,-2.537 5.147,-5.968c0,-3.431 -2.287,-5.897 -5.147,-5.897c-2.894,0 -5.36,2.466 -5.36,5.897m19.014,-0.036c0,7.434 -5.791,12.902 -13.761,12.902c-7.969,0 -13.76,-5.432 -13.76,-12.902c0,-7.434 5.791,-12.759 13.76,-12.759c7.97,0 13.761,5.361 13.761,12.759" style="fill:#000;fill-rule:nonzero;"/><path d="M222.259,20.723c2.037,0 3.609,-1.573 3.609,-4.074l0,-14.439l8.292,0l0,14.439c0,6.647 -4.681,10.971 -11.936,10.971c-7.291,0 -12.116,-4.324 -12.116,-10.971l0,-14.439l8.292,0l0,14.439c0,2.466 1.786,4.074 3.859,4.074" style="fill:#000;fill-rule:nonzero;"/><path d="M193.739,46.13l-2.085,-5.937l-2.144,5.937l4.229,0Zm1.651,4.808l-7.618,0l-1.042,2.868l-6.893,0l8.573,-20.304l6.893,0l8.255,20.304l-7.154,0l-1.014,-2.868Z" style="fill:#000;fill-rule:nonzero;"/><path d="M247.174,33.502l0,5.098l-10.456,0l0,2.491l9.5,0l0,5.098l-9.5,0l0,2.52l10.717,0l0,5.097l-17.437,0l0,-20.304l17.176,0Z" style="fill:#000;fill-rule:nonzero;"/><path d="M258.149,43.437l3.1,0c1.448,0 2.288,-0.898 2.288,-2.462c0,-1.506 -0.84,-2.375 -2.288,-2.375l-3.1,0l0,4.837Zm4.953,10.369l-2.432,-5.271l-2.521,0l0,5.271l-6.72,0l0,-20.304l9.82,0c5.503,0 8.66,2.636 8.66,7.27c0,2.955 -1.13,5.156 -3.215,6.43l3.997,6.604l-7.589,0Z" style="fill:#000;fill-rule:nonzero;"/><path d="M282.101,38.339c-0.754,0 -1.246,0.232 -1.246,0.84c0,2.549 10.515,0.956 10.515,8.313c0,4.518 -3.969,6.517 -8.545,6.517c-3.534,0 -7.473,-1.188 -10.167,-3.244l2.492,-5.04c2.085,1.739 5.676,3.157 7.732,3.157c0.986,0 1.622,-0.318 1.622,-1.042c0,-2.636 -10.513,-0.898 -10.513,-8.023c0,-4.056 3.418,-6.604 8.689,-6.604c3.215,0 6.546,0.956 8.834,2.404l-2.433,5.097c-2.056,-1.129 -5.213,-2.375 -6.98,-2.375" style="fill:#000;fill-rule:nonzero;"/><path d="M292.159,14.075l-10.331,0l3.22,3.22l0,2.606c-1.216,0.5 -2.431,0.821 -3.289,0.821c-3.252,0 -5.647,-2.501 -5.647,-5.968c0,-3.395 2.36,-5.897 5.576,-5.897c2.073,0 4.504,1.037 6.183,2.645l4.681,-5.683c-2.68,-2.358 -6.933,-3.86 -10.828,-3.86c-8.185,0 -14.117,5.397 -14.117,12.795c0,7.434 5.717,12.866 13.581,12.866c3.573,0 8.184,-1.358 10.971,-3.216l0,-10.327l0,-0.002Z" style="fill:#000;fill-rule:nonzero;"/><path d="M164.027,2.21l3.292,3.292l-3.203,6.358l-5.04,-9.65l-8.255,0l9.149,17.441l0,7.613l8.292,0l0,-7.791l8.97,-17.263l-13.205,0Z" style="fill:#000;fill-rule:nonzero;"/><path d="M263.315,2.21l-10.332,0l3.01,3.01l0,9.856l-9.899,-12.866l-6.934,0l0,25.054l7.541,0l0,-12.795l9.865,12.795l6.933,0l0,-25.054l-0.184,0Z" style="fill:#000;fill-rule:nonzero;"/><path d="M167.513,33.502l1.849,1.849l-3.658,8.752l-4.432,-10.601l-7.096,0l0,20.304l5.851,0l0,-11.122l3.475,9.152l4.403,0l3.476,-9.152l0,11.122l5.851,0l0,-20.304l-9.719,0Z" style="fill:#000;fill-rule:nonzero;"/><path d="M219.428,41.67l7.241,-8.168l-10.985,0l1.748,1.748l-4.55,5.29l0,-7.038l-6.719,0l0,20.304l6.719,0l0,-4.779l1.97,-2.201l4.228,6.98l8.024,0l-7.676,-12.136Z" style="fill:#000;fill-rule:nonzero;"/></g></svg>
