<svg viewBox="0 0 293 56" xmlns="http://www.w3.org/2000/svg" fill-rule="evenodd" clip-rule="evenodd" stroke-linejoin="round" stroke-miterlimit="1.414">
  <g fill-rule="nonzero">
    <path d="M20.956 27.488h-4.008V20.64a4.817 4.817 0 0 0 3.186-4.192h.822c3.305 0 5.222 1.984 5.222 5.421 0 3.57-1.917 5.619-5.222 5.619m-5.055 8.649a3.687 3.687 0 0 1 3.119 3.637 3.688 3.688 0 0 1-3.683 3.683 3.689 3.689 0 0 1-3.685-3.683 3.688 3.688 0 0 1 3.119-3.637V19.745a3.688 3.688 0 0 1-3.119-3.636 3.688 3.688 0 0 1 3.685-3.684 3.687 3.687 0 0 1 3.683 3.684 3.687 3.687 0 0 1-3.119 3.636v16.392zm5.848-31.323H0v46.34h15.337v-6.566a4.82 4.82 0 0 0 4.814-4.814c0-.222-.02-.438-.049-.651h1.647c12.031 0 18.972-6.479 18.972-17.717 0-10.577-6.941-16.592-18.972-16.592M58.589 8.447a3.66 3.66 0 0 1-.587.051 3.688 3.688 0 0 1-3.684-3.683 3.688 3.688 0 0 1 3.684-3.685 3.689 3.689 0 0 1 3.684 3.685 3.683 3.683 0 0 1-2.022 3.282l12.825 39.42c.183-.028.369-.047.559-.047a3.689 3.689 0 0 1 3.684 3.685 3.688 3.688 0 0 1-3.684 3.683 3.688 3.688 0 0 1-3.684-3.683c0-1.444.836-2.692 2.047-3.296L58.589 8.447zm18.623-3.633L68.89 31.399 61.36 8.258a4.8 4.8 0 0 0 1.457-3.443A4.82 4.82 0 0 0 58.002 0a4.82 4.82 0 0 0-4.815 4.814H41.713l17.585 46.341h8.936a4.82 4.82 0 0 0 4.814 4.814 4.82 4.82 0 0 0 4.814-4.814 4.803 4.803 0 0 0-1.402-3.394L92.879 4.814H77.212zM116.942 39.256h-4.14V20.905a4.816 4.816 0 0 0 3.186-4.191h.226c5.95 0 9.85 4.495 9.85 11.37 0 6.809-3.569 11.172-9.122 11.172m-5.187 8.263a3.686 3.686 0 0 1 3.12 3.636 3.689 3.689 0 0 1-3.684 3.684 3.689 3.689 0 0 1-3.685-3.684 3.686 3.686 0 0 1 3.12-3.636V20.01a3.687 3.687 0 0 1-3.12-3.636 3.689 3.689 0 0 1 3.685-3.684 3.689 3.689 0 0 1 3.684 3.684 3.687 3.687 0 0 1-3.12 3.636v27.509zm29.976-19.567c0-14.081-9.916-23.137-25.185-23.137H95.854v46.34h10.522a4.82 4.82 0 0 0 4.815 4.814 4.82 4.82 0 0 0 4.814-4.814v-.001c15.635-.022 25.726-9.139 25.726-23.202M187.345 14.755c0 3.431 2.501 5.968 5.36 5.968 2.86 0 5.147-2.537 5.147-5.968s-2.287-5.897-5.147-5.897c-2.894 0-5.36 2.466-5.36 5.897m19.014-.036c0 7.434-5.791 12.902-13.761 12.902-7.969 0-13.76-5.432-13.76-12.902 0-7.434 5.791-12.759 13.76-12.759 7.97 0 13.761 5.361 13.761 12.759M222.259 20.723c2.037 0 3.609-1.573 3.609-4.074V2.21h8.292v14.439c0 6.647-4.681 10.971-11.936 10.971-7.291 0-12.116-4.324-12.116-10.971V2.21h8.292v14.439c0 2.466 1.786 4.074 3.859 4.074M193.739 46.13l-2.085-5.937-2.144 5.937h4.229zm1.651 4.808h-7.618l-1.042 2.868h-6.893l8.573-20.304h6.893l8.255 20.304h-7.154l-1.014-2.868zM247.174 33.502V38.6h-10.456v2.491h9.5v5.098h-9.5v2.52h10.717v5.097h-17.437V33.502h17.176zM258.149 43.437h3.1c1.448 0 2.288-.898 2.288-2.462 0-1.506-.84-2.375-2.288-2.375h-3.1v4.837zm4.953 10.369l-2.432-5.271h-2.521v5.271h-6.72V33.502h9.82c5.503 0 8.66 2.636 8.66 7.27 0 2.955-1.13 5.156-3.215 6.43l3.997 6.604h-7.589zM282.101 38.339c-.754 0-1.246.232-1.246.84 0 2.549 10.515.956 10.515 8.313 0 4.518-3.969 6.517-8.545 6.517-3.534 0-7.473-1.188-10.167-3.244l2.492-5.04c2.085 1.739 5.676 3.157 7.732 3.157.986 0 1.622-.318 1.622-1.042 0-2.636-10.513-.898-10.513-8.023 0-4.056 3.418-6.604 8.689-6.604 3.215 0 6.546.956 8.834 2.404l-2.433 5.097c-2.056-1.129-5.213-2.375-6.98-2.375M292.159 14.075h-10.331l3.22 3.22v2.606c-1.216.5-2.431.821-3.289.821-3.252 0-5.647-2.501-5.647-5.968 0-3.395 2.36-5.897 5.576-5.897 2.073 0 4.504 1.037 6.183 2.645l4.681-5.683c-2.68-2.358-6.933-3.86-10.828-3.86-8.185 0-14.117 5.397-14.117 12.795 0 7.434 5.717 12.866 13.581 12.866 3.573 0 8.184-1.358 10.971-3.216V14.075zM164.027 2.21l3.292 3.292-3.203 6.358-5.04-9.65h-8.255l9.149 17.441v7.613h8.292v-7.791l8.97-17.263h-13.205zM263.315 2.21h-10.332l3.01 3.01v9.856L246.094 2.21h-6.934v25.054h7.541V14.469l9.865 12.795h6.933V2.21h-.184zM167.513 33.502l1.849 1.849-3.658 8.752-4.432-10.601h-7.096v20.304h5.851V42.684l3.475 9.152h4.403l3.476-9.152v11.122h5.851V33.502h-9.719zM219.428 41.67l7.241-8.168h-10.985l1.748 1.748-4.55 5.29v-7.038h-6.719v20.304h6.719v-4.779l1.97-2.201 4.228 6.98h8.024l-7.676-12.136z"/>
  </g>
</svg>
